<?xml version="1.0" encoding="UTF-8"?>
<svg version="1.1" xmlns="http://www.w3.org/2000/svg" width="864" height="840">
    <path
        d="M0 0 C0.88268555 0.03738281 1.76537109 0.07476562 2.67480469 0.11328125 C4.2787207 0.16742188 4.2787207 0.16742188 5.91503906 0.22265625 C7.86120117 0.32320313 7.86120117 0.32320313 9.84667969 0.42578125 C11.48529522 0.49483973 13.12397225 0.56244823 14.76269531 0.62890625 C20.3755404 0.86536587 25.98594287 1.14429984 31.59667969 1.42578125 C33.5654166 1.5224024 35.53416654 1.6187587 37.50292969 1.71484375 C42.28433522 1.94876991 47.06555035 2.1862789 51.84667969 2.42578125 C51.09469756 5.75496304 50.01935751 7.92152199 48.04589844 10.7265625 C47.48064453 11.53931641 46.91539062 12.35207031 46.33300781 13.18945312 C45.44258789 14.45112305 45.44258789 14.45112305 44.53417969 15.73828125 C40.71245698 21.18518836 37.03979003 26.58357195 33.84667969 32.42578125 C40.63796222 43.61856483 47.44097552 54.80313053 54.34667969 65.92578125 C58.82068191 73.13306616 63.25528634 80.36294635 67.65917969 87.61328125 C72.04433766 94.83163313 76.4434565 102.04102692 80.86914062 109.23461914 C82.22078694 111.43177231 83.5704229 113.63016356 84.91796875 115.82983398 C88.15214531 121.09944804 91.4208193 126.33907389 94.78417969 131.52734375 C95.39640381 132.48237793 96.00862793 133.43741211 96.6394043 134.42138672 C97.78750731 136.20823983 98.94905442 137.98655288 100.1262207 139.75439453 C100.63338623 140.5482959 101.14055176 141.34219727 101.66308594 142.16015625 C102.11111572 142.84303711 102.55914551 143.52591797 103.02075195 144.22949219 C105.33638986 150.38718612 100.92375404 157.59792248 98.56933594 163.27734375 C98.13156326 164.3473613 97.69379059 165.41737885 97.24275208 166.51982117 C95.80402148 170.03254897 94.35660871 173.54162979 92.90917969 177.05078125 C91.90158565 179.50651299 90.89450236 181.96244728 89.88818359 184.41870117 C87.84704835 189.39856262 85.80219462 194.37687964 83.75439453 199.35400391 C81.19038197 205.58710007 78.63475588 211.82357587 76.08496094 218.0625 C75.7185701 218.9589624 75.35217926 219.8554248 74.97468567 220.77905273 C74.2495233 222.55343456 73.52438965 224.32782811 72.79928589 226.10223389 C71.34752896 229.65353122 69.89395761 233.20408466 68.44038391 236.75463867 C63.23307901 249.47451727 58.03905478 262.19980227 52.84667969 274.92578125 C47.10284536 289.00319651 41.35543448 303.07912689 35.59594727 317.15014648 C34.07666405 320.86230814 32.55964071 324.57537984 31.04467773 328.28930664 C25.13299718 342.77462449 25.13299718 342.77462449 22.09965515 349.96582031 C21.27671231 351.91726593 20.45853263 353.87063637 19.6418457 355.82470703 C18.68966943 358.09719886 17.72745236 360.36552415 16.75268555 362.62841797 C16.34671143 363.60182129 15.9407373 364.57522461 15.52246094 365.578125 C15.17094971 366.40304443 14.81943848 367.22796387 14.45727539 368.07788086 C13.71890676 370.9171016 14.00029368 372.63495599 14.84667969 375.42578125 C16.65746753 378.20021956 16.65746753 378.20021956 19.03417969 381.05078125 C19.95156853 382.20542583 20.86680738 383.36178079 21.78027344 384.51953125 C22.2751123 385.14472656 22.76995117 385.76992188 23.27978516 386.4140625 C26.12751145 390.07022714 28.85710593 393.81329896 31.59667969 397.55078125 C32.18860107 398.35660645 32.78052246 399.16243164 33.39038086 399.99267578 C34.60477413 401.64615786 35.8187199 403.29996869 37.03222656 404.95410156 C39.9647372 408.94881869 42.90607357 412.93702195 45.84667969 416.92578125 C47.00556709 418.49867343 48.16442116 420.07159017 49.32324219 421.64453125 C51.73376692 424.91605392 54.14536577 428.18678156 56.55761719 431.45703125 C62.68131661 439.76036622 68.79415657 448.07035196 74.84667969 456.42578125 C84.58634215 454.12523977 93.89066225 450.62788369 103.27139282 447.19338989 C106.31092614 446.08060786 109.35233991 444.97310867 112.39428711 443.86694336 C115.69336949 442.66723865 118.99233589 441.46722517 122.29075623 440.26570129 C134.61273925 435.77775373 146.94913966 431.32987568 159.28634644 426.88400269 C163.15373393 425.4903334 167.02085572 424.09592789 170.88793945 422.70141602 C195.20403593 413.93319801 219.52462534 405.1774581 243.84667969 396.42578125 C244.17667969 397.08578125 244.50667969 397.74578125 244.84667969 398.42578125 C246.17232084 399.10761536 247.50692839 399.77210802 248.84667969 400.42578125 C250.11539914 401.36995631 251.35542048 402.3535185 252.56933594 403.3671875 C253.26736328 403.94654053 253.96539062 404.52589355 254.68457031 405.12280273 C255.78575195 406.0462146 255.78575195 406.0462146 256.90917969 406.98828125 C258.44165177 408.26181503 259.97420385 409.53525254 261.50683594 410.80859375 C262.62276123 411.73913574 262.62276123 411.73913574 263.76123047 412.68847656 C271.01926048 418.7348523 278.35388995 424.67205876 285.84667969 430.42578125 C283.63100238 432.64145856 282.20031456 433.16892203 279.27246094 434.203125 C277.82996223 434.71747604 277.82996223 434.71747604 276.35832214 435.24221802 C275.30260513 435.61216888 274.24688812 435.98211975 273.15917969 436.36328125 C271.50436333 436.95095779 271.50436333 436.95095779 269.81611633 437.55050659 C266.79416977 438.62278945 263.77052918 439.69012973 260.74618912 440.75563812 C257.54916822 441.8835407 254.35457318 443.01826622 251.15991211 444.15283203 C249.85924291 444.61466929 248.55856845 445.07649174 247.25788879 445.53829956 C246.61082285 445.76804348 245.9637569 445.9977874 245.2970829 446.23449326 C243.3156266 446.93768268 241.33390356 447.64011528 239.35209656 448.34231567 C227.27363529 452.6226164 215.21373448 456.95365667 203.15917969 461.30078125 C201.13185363 462.0312991 199.1045097 462.76176736 197.07714844 463.4921875 C190.6665578 465.8021813 184.25658891 468.11389743 177.84667969 470.42578125 C175.41227445 471.30371736 172.97786683 472.18164684 170.54345703 473.05957031 C156.04809588 478.28709111 156.04809588 478.28709111 141.55322742 483.51597786 C128.38237189 488.26797108 115.21023525 493.01634345 102.03417969 497.75390625 C100.28059143 498.38455994 100.28059143 498.38455994 98.49157715 499.0279541 C92.98208429 501.00932084 87.47228705 502.98983232 81.96191406 504.96875 C80.01723931 505.66793176 78.07257709 506.36714841 76.12792969 507.06640625 C75.25386475 507.37991028 74.3797998 507.69341431 73.47924805 508.01641846 C72.67302002 508.30651794 71.86679199 508.59661743 71.03613281 508.89550781 C70.29693604 509.15948364 69.55773926 509.42345947 68.79614258 509.69543457 C67.19651004 510.29472082 65.63112358 510.98466255 64.07910156 511.69824219 C61.19675243 512.63759044 59.68672993 512.46951622 56.84667969 511.42578125 C54.96899414 509.60668945 54.96899414 509.60668945 53.20996094 507.2265625 C52.55560059 506.35435059 51.90124023 505.48213867 51.22705078 504.58349609 C50.54465332 503.6445752 49.86225586 502.7056543 49.15917969 501.73828125 C48.08917725 500.2989624 48.08917725 500.2989624 46.99755859 498.83056641 C44.93073975 496.04061856 42.88404219 493.2372892 40.84667969 490.42578125 C40.35441895 489.74660645 39.8621582 489.06743164 39.35498047 488.36767578 C37.34771312 485.58586091 35.36039664 482.79056092 33.38183594 479.98828125 C24.98009352 468.12381829 16.19003723 456.52993816 7.45556641 444.90991211 C1.44472858 436.90661303 -4.49319153 428.85070971 -10.41943359 420.78466797 C-12.7449549 417.62088497 -15.07405078 414.45974888 -17.40478516 411.29980469 C-18.56246097 409.72800357 -19.71777065 408.15445674 -20.87060547 406.57910156 C-23.92158131 402.4160878 -27.01583334 398.2960601 -30.18066406 394.21875 C-30.83486328 393.36410156 -31.4890625 392.50945312 -32.16308594 391.62890625 C-33.41973081 389.98902925 -34.6900091 388.35948312 -35.97558594 386.7421875 C-36.53826172 386.00226563 -37.1009375 385.26234375 -37.68066406 384.5 C-38.18331787 383.85635498 -38.68597168 383.21270996 -39.20385742 382.54956055 C-40.8023761 378.9739591 -39.73470583 376.08693349 -38.47914124 372.49949646 C-37.60854396 370.2359765 -36.68737052 367.9988164 -35.75097656 365.76171875 C-35.40212402 364.9140242 -35.05327148 364.06632965 -34.69384766 363.19294739 C-33.54019737 360.39317144 -32.37791566 357.59706119 -31.21582031 354.80078125 C-30.39865939 352.82099717 -29.58218324 350.84093032 -28.76635742 348.8605957 C-27.07124751 344.74756618 -25.37319987 340.63576897 -23.67285156 336.52490234 C-19.8305462 327.23057292 -16.02294074 317.92206414 -12.21582031 308.61328125 C-11.85104584 307.72203552 -11.48627136 306.83078979 -11.11044312 305.91253662 C-5.0472847 291.0980724 0.97311429 276.26651029 6.97167969 261.42578125 C7.36169159 260.46102875 7.75170349 259.49627625 8.15353394 258.50228882 C9.2835835 255.70618014 10.41296333 252.90980221 11.54199219 250.11328125 C11.90271317 249.22018753 12.26343414 248.32709381 12.63508606 247.40693665 C14.43654408 242.94154167 16.22782315 238.47242214 18.00195312 233.99609375 C18.35297089 233.11219971 18.70398865 232.22830566 19.06564331 231.31762695 C19.71771585 229.67388062 20.3676275 228.02927425 21.01467896 226.38354492 C23.03573165 221.29151905 25.24992896 216.31310202 27.53475952 211.33441162 C31.47854584 202.59072664 35.03507471 193.67129025 38.67822266 184.79931641 C39.71091128 182.28657747 40.75098418 179.77708752 41.79736328 177.27001953 C43.31543819 173.63260866 44.81227696 169.98666379 46.30761719 166.33984375 C47.01366592 164.65853867 47.01366592 164.65853867 47.73397827 162.94326782 C48.15837189 161.89802948 48.5827655 160.85279114 49.02001953 159.77587891 C49.39798676 158.86085602 49.77595398 157.94583313 50.16537476 157.00308228 C51.1277675 153.36245723 50.50004168 150.7791384 48.88549805 147.43481445 C48.48983643 146.78859131 48.0941748 146.14236816 47.68652344 145.4765625 C47.23100098 144.72463623 46.77547852 143.97270996 46.30615234 143.19799805 C45.80390137 142.3862915 45.30165039 141.57458496 44.78417969 140.73828125 C43.99213135 139.4385437 43.99213135 139.4385437 43.18408203 138.11254883 C41.41308753 135.21188765 39.63060473 132.31850595 37.84667969 129.42578125 C36.55870056 127.32956145 35.27094534 125.23320406 33.98339844 123.13671875 C31.28159052 118.74106215 28.57498323 114.34839884 25.86621094 109.95703125 C22.1067482 103.85680498 18.37823519 97.73820179 14.65917969 91.61328125 C9.73563367 83.50696986 4.76466337 75.43174263 -0.23754883 67.3737793 C-6.60905493 57.09844604 -12.89396036 46.76976653 -19.15332031 36.42578125 C-19.72872559 35.58466797 -20.30413086 34.74355469 -20.89697266 33.87695312 C-22.15332031 31.42578125 -22.15332031 31.42578125 -22.05908203 29.44335938 C-20.86276683 26.77857533 -19.34385941 24.53367562 -17.66113281 22.14453125 C-16.95601562 21.13777344 -16.25089844 20.13101562 -15.52441406 19.09375 C-14.78320312 18.04832031 -14.04199219 17.00289063 -13.27832031 15.92578125 C-12.54484375 14.88035156 -11.81136719 13.83492188 -11.05566406 12.7578125 C-9.09816064 9.97309452 -7.13643573 7.19231635 -5.15332031 4.42578125 C-4.44393311 3.28206055 -4.44393311 3.28206055 -3.72021484 2.11523438 C-2.15332031 0.42578125 -2.15332031 0.42578125 0 0 Z "
        fill="#ffffff" transform="translate(175.1533203125,318.57421875)" />
    <path
        d="M0 0 C9.08691161 0.56513068 17.63002637 3.17542421 26.35546875 5.6015625 C28.08021231 6.07536043 29.80513104 6.54852112 31.5302124 7.02108765 C39.94126723 9.32924963 48.34392447 11.66768241 56.74697971 14.00476456 C60.56163996 15.06551053 64.37661167 16.12513103 68.19178963 17.18401337 C70.09731269 17.71297151 72.00271184 18.24237622 73.90798759 18.77222443 C85.3704528 21.95680672 96.84814471 25.02194892 108.40445518 27.84736252 C112.77655939 28.92284998 117.13838525 30.03971003 121.50210571 31.14862061 C123.77517348 31.71194548 126.05395119 32.2527538 128.33798218 32.76983643 C131.45985594 33.47786872 134.55351998 34.26048387 137.65234375 35.0625 C138.54105164 35.24017914 139.42975952 35.41785828 140.34539795 35.60092163 C143.14442265 36.37852098 144.80030428 37.08699219 147 39 C149.09051575 43.10948731 150.28298934 47.34830829 151.42178535 51.79032516 C152.20526169 54.78441735 153.11123012 57.73637355 154.01262188 60.69669437 C155.25329315 64.78985891 156.44189696 68.89830529 157.640625 73.00390625 C158.17215765 74.81639801 158.70396322 76.62880975 159.23602295 78.44114685 C160.62896796 83.18810262 162.01880511 87.93596208 163.40777588 92.68408203 C165.60810164 100.20400109 167.81282971 107.7226314 170.01789665 115.24116135 C170.55827355 117.08375737 171.09852232 118.92639097 171.63864326 120.76906204 C175.35093043 133.43185532 179.10984417 146.07939473 182.9160614 158.71424866 C186.54798189 170.78553727 190.05961351 182.89076439 193.5625 195 C197.66883889 209.18115578 201.79253947 223.35641159 206.01777458 237.5026207 C206.58461606 239.40046589 207.1507783 241.2985139 207.7169342 243.19656372 C209.51213895 249.21322544 211.31314677 255.22805057 213.12329102 261.24023438 C213.76990944 263.40358145 214.41632371 265.56698957 215.0625 267.73046875 C215.36167831 268.71637497 215.66085663 269.70228119 215.96910095 270.71806335 C216.2383992 271.62345352 216.50769745 272.52884369 216.78515625 273.46166992 C217.02113525 274.24620041 217.25711426 275.0307309 217.50024414 275.83903503 C218 278 218 278 218 282 C218.67682327 282.17695404 219.35364655 282.35390808 220.05097961 282.53622437 C226.50039258 284.25396742 232.80845554 286.20668049 239.10546875 288.4140625 C240.04771805 288.74116714 240.98996735 289.06827179 241.96076965 289.4052887 C245.03767447 290.47475361 248.11262836 291.54970476 251.1875 292.625 C253.34954936 293.37818336 255.51165978 294.13119149 257.67382812 294.8840332 C277.89580519 301.93331616 298.08456131 309.07710641 318.26191711 316.25299072 C322.53016378 317.77048178 326.79999169 319.28311845 331.07421875 320.78369141 C331.86562256 321.06175125 332.65702637 321.3398111 333.47241211 321.626297 C334.94808066 322.14428964 336.42413168 322.66119452 337.90063477 323.17680359 C342.77939915 324.88969958 342.77939915 324.88969958 345 326 C346.94487823 334.12762978 346.76838847 342.92333479 347.10693359 351.23925781 C347.2021979 353.32726924 347.31902332 355.41440996 347.45751953 357.5 C348.58027596 374.64165002 348.58027596 374.64165002 345.12915039 379.79199219 C342.21605814 381.94240098 339.25604882 383.41567031 336 385 C333.20525947 386.78695429 330.49977727 388.69907274 327.77734375 390.59375 C326.32073267 391.57384891 324.86171932 392.55038653 323.40039062 393.5234375 C320.3858079 395.53293825 317.37595919 397.54921451 314.36914062 399.5703125 C312.92217514 400.53690778 311.47492046 401.50307033 310.02734375 402.46875 C309.3503392 402.92487671 308.67333466 403.38100342 307.97581482 403.85095215 C303.22887682 407 303.22887682 407 301 407 C300.85479029 402.4143081 300.71252615 397.82853664 300.57275391 393.24267578 C300.52502077 391.68926653 300.47654337 390.13587993 300.42724609 388.58251953 C300.11476036 378.71689866 299.92871 368.8716842 300 359 C298.78401123 358.76168457 297.56802246 358.52336914 296.31518555 358.27783203 C290.02305819 356.87423954 284.02615897 354.70525593 277.95703125 352.5546875 C276.68183506 352.10710717 275.40647058 351.66000608 274.13095093 351.21334839 C270.72601994 350.01966376 267.32326811 348.81988365 263.92095566 347.61875916 C260.38962341 346.37307932 256.85653213 345.13241133 253.32348633 343.89160156 C251.89713824 343.39063144 250.47079242 342.88965487 249.04444885 342.38867188 C247.98407001 342.01624359 247.98407001 342.01624359 246.90226936 341.6362915 C244.75484038 340.88176821 242.60767451 340.12650013 240.46055603 339.37109375 C231.54388296 336.23530988 222.61715484 333.13080532 213.6796875 330.0546875 C211.53149176 329.31397176 209.38329832 328.57324934 207.23510742 327.83251953 C204.22953846 326.79649256 201.22341055 325.76227732 198.21524048 324.73382568 C195.48937654 323.80157091 192.76596203 322.86247482 190.04296875 321.921875 C189.24708344 321.65204803 188.45119812 321.38222107 187.63119507 321.10421753 C182.22755279 319.22755279 182.22755279 319.22755279 180 317 C179.26887512 315.0824585 179.26887512 315.0824585 178.57739258 312.68652344 C178.31046097 311.77395279 178.04352936 310.86138214 177.76850891 309.92115784 C177.48009628 308.9107695 177.19168365 307.90038116 176.89453125 306.859375 C176.42765144 305.25430336 176.42765144 305.25430336 175.95133972 303.61680603 C175.26542941 301.25613058 174.58250207 298.89458695 173.90209961 296.53231812 C172.78888326 292.6680194 171.66830578 288.80593133 170.54492188 284.94458008 C170.1502939 283.58790739 169.75567117 282.23123317 169.36105347 280.8745575 C169.16171078 280.18928167 168.96236809 279.50400585 168.75698471 278.7979641 C168.13522049 276.65938151 167.51430727 274.52055337 166.89358521 272.38166809 C162.45251144 257.08372368 157.94247583 241.80626001 153.42996216 226.52926636 C151.00585352 218.32222636 148.5850188 210.11422032 146.1640625 201.90625 C145.91781443 201.07144545 145.67156635 200.23664089 145.41785622 199.37653923 C139.05850303 177.81697943 132.71624341 156.252392 126.375 134.6875 C126.10478027 133.76856838 125.83456055 132.84963676 125.55615234 131.90285873 C123.3008692 124.23330838 121.04567975 116.56373047 118.79086304 108.89404297 C118.5750036 108.15996027 118.35914417 107.42587757 118.13674355 106.66954994 C117.71627335 105.23899871 117.29614726 103.80834629 116.87639427 102.37758446 C115.78251308 98.650794 114.68086314 94.92650097 113.56915283 91.20498657 C113.21978133 90.03064041 113.21978133 90.03064041 112.86335182 88.83257008 C112.4163222 87.33053847 111.96716936 85.82913665 111.5156002 84.32846355 C110 79.22480513 110 79.22480513 110 77 C109.40964462 76.91159348 108.81928925 76.82318695 108.21104431 76.73210144 C99.92535405 75.36705976 91.94982167 73.1590824 83.88434029 70.86886024 C81.3928952 70.16201829 78.89951883 69.46240549 76.40550232 68.76469421 C69.32350784 66.78234074 62.24469462 64.78880578 55.16821289 62.78686523 C50.82010827 61.55731932 46.46943007 60.33727192 42.11701775 59.12306786 C40.46415975 58.65985881 38.81233533 58.19294501 37.16159248 57.7222538 C34.86215706 57.06675287 32.55965998 56.42331297 30.25610352 55.7824707 C29.23761322 55.48724266 29.23761322 55.48724266 28.19854736 55.18605042 C23.55357594 53.9095233 23.55357594 53.9095233 19 55 C17.30121575 56.97172225 17.30121575 56.97172225 15.75 59.625 C11.71483104 65.94550765 7.48570975 72.10526331 3.1875 78.25 C1.77435198 80.27577134 0.36158778 82.30181047 -1.05078125 84.328125 C-1.72963379 85.30201172 -2.40848633 86.27589844 -3.10791016 87.27929688 C-5.58630953 90.84307527 -8.04631695 94.4191784 -10.5 98 C-15.66181087 105.52998533 -20.87996016 113.02038972 -26.09765625 120.51171875 C-29.91571524 125.9961033 -33.72152283 131.48827642 -37.5 137 C-42.6589977 144.5255104 -47.87352705 152.01199851 -53.08886719 159.49853516 C-56.49447335 164.38973772 -59.89369305 169.28479464 -63.26074219 174.20263672 C-64.13433821 175.47694121 -65.01538546 176.74629608 -65.91378784 178.00323486 C-68.30657257 181.38932909 -70.43827626 184.75564724 -72.34228516 188.44140625 C-78.56953949 199.77459925 -78.56953949 199.77459925 -84.40527344 201.85919189 C-91.14924504 202.98114639 -97.86297774 202.25866832 -104.625 201.625 C-106.65316836 201.49982044 -108.68184244 201.38257079 -110.7109375 201.2734375 C-119.49726642 200.76198043 -128.24581617 199.89666562 -137 199 C-133.48343768 192.15360442 -129.2254127 185.98932649 -124.71875 179.7734375 C-122.04223375 176.07793328 -119.44960084 172.32947184 -116.875 168.5625 C-112.28259518 161.85212538 -107.64822703 155.17182271 -103 148.5 C-98.48141142 142.01262038 -93.97035346 135.52072371 -89.5 129 C-81.69434835 117.6176825 -73.78580474 106.30651299 -65.89746094 94.98144531 C-58.98041954 85.04969711 -52.06506152 75.11753006 -45.22143555 65.13500977 C-40.48344419 58.23163235 -35.6923924 51.36525053 -30.90673828 44.49487305 C-27.04404769 38.94678658 -23.19611052 33.38929474 -19.375 27.8125 C-12.98802788 18.49196958 -6.4918849 9.24761797 0 0 Z "
        fill="#ffffff" transform="translate(382,17)" />
    <path
        d="M0 0 C0.74400121 6.10088294 1.19335576 12.11141463 1.34803772 18.25315857 C1.37339346 19.1399236 1.3987492 20.02668862 1.42487329 20.94032532 C1.50824227 23.88778261 1.58628042 26.8353558 1.66430664 29.78295898 C1.72324849 31.90597403 1.78251708 34.02898002 1.84208679 36.15197754 C2.00246304 41.9018425 2.15817591 47.65182519 2.31296849 53.40184283 C2.47592448 59.42837046 2.64293242 65.45478588 2.80943298 71.48121643 C3.08844998 81.60142347 3.3646317 91.72170465 3.63891602 101.84204102 C3.95568736 113.52948098 4.27598561 125.21681985 4.5983935 136.9041056 C4.94210394 149.36373465 5.28370186 161.82342087 5.62442851 174.28313184 C5.72250362 177.86551851 5.82091897 181.44789571 5.91938972 185.03027153 C6.07422754 190.66829526 6.22761023 196.30635685 6.37988472 201.94445038 C6.43585375 204.00918145 6.49227986 206.0739002 6.54920578 208.13860512 C6.62706291 210.96565642 6.70321556 213.79274882 6.77894592 216.61985779 C6.80160949 217.42892608 6.82427306 218.23799436 6.84762341 219.07157987 C6.99624487 224.71536641 7.02361722 230.35439879 7 236 C-10.57884495 244.08431908 -28.17867148 252.11321236 -45.875 259.9375 C-57.44782007 265.0557339 -68.98095895 270.25170685 -80.47369385 275.54745483 C-82.79028011 276.61476276 -85.10767869 277.6802878 -87.42529297 278.74536133 C-94.22932901 281.87376383 -101.02919979 285.01018486 -107.81413269 288.17984009 C-110.69178486 289.52117758 -113.57434328 290.8517149 -116.45809937 292.17987061 C-117.80548 292.80352928 -119.15061933 293.43205622 -120.49331665 294.06573486 C-122.33352394 294.93376761 -124.18221005 295.78375716 -126.03125 296.6328125 C-127.06830078 297.11637207 -128.10535156 297.59993164 -129.17382812 298.09814453 C-132.34435132 299.10988543 -133.87311492 299.05250392 -137 298 C-139.25843909 296.43668712 -141.33116407 294.87038546 -143.4375 293.125 C-144.68600466 292.11694809 -145.93470812 291.10914238 -147.18359375 290.1015625 C-147.81765137 289.5849707 -148.45170898 289.06837891 -149.10498047 288.53613281 C-152.04219341 286.15518153 -155.02170913 283.82919235 -158 281.5 C-159.16946847 280.58098061 -160.33873891 279.66170916 -161.5078125 278.7421875 C-163.81228102 276.93125825 -166.11974587 275.12425437 -168.4296875 273.3203125 C-174.69387276 268.42266446 -180.90381258 263.4673397 -187.0625 258.4375 C-192.90072869 253.67142808 -198.81179458 249.02383218 -204.80078125 244.44921875 C-213.25731804 237.98918373 -221.57638559 231.36308994 -229.8125 224.625 C-235.98503389 219.5773287 -242.27169302 214.70436629 -248.6262207 209.88867188 C-255.03048926 205.01792343 -261.26512551 199.95339497 -267.4921875 194.859375 C-270.84866474 192.11526404 -274.24915323 189.43495027 -277.68359375 186.7890625 C-280.69879329 184.46029119 -283.69301405 182.10531443 -286.6875 179.75 C-287.28449707 179.28062012 -287.88149414 178.81124023 -288.49658203 178.32763672 C-289.7209208 177.36497869 -290.94520413 176.40225015 -292.16943359 175.43945312 C-295.11224327 173.12539526 -298.05616222 170.81274971 -301 168.5 C-302.16667232 167.58334053 -303.33333898 166.66667385 -304.5 165.75 C-305.0775 165.29625 -305.655 164.8425 -306.25 164.375 C-311.5 160.25 -311.5 160.25 -313.25146484 158.87207031 C-314.41094688 157.96222822 -315.57271355 157.05528962 -316.73681641 156.15136719 C-319.78920577 153.77490687 -322.77790917 151.35092883 -325.7109375 148.828125 C-326.32453125 148.31314453 -326.938125 147.79816406 -327.5703125 147.26757812 C-328.7394653 146.28442691 -329.89434233 145.28393925 -331.03125 144.26367188 C-334.01399805 141.78885555 -335.55867933 140.97358811 -339.46543884 141.20739746 C-345.01272729 142.07169441 -350.45374531 143.43159286 -355.90454102 144.75976562 C-357.07464722 145.04115891 -358.24475342 145.32255219 -359.45031738 145.61247253 C-362.63897406 146.38007364 -365.82668238 147.15147676 -369.01405072 147.92440605 C-372.36113502 148.73490324 -375.70954087 149.53990128 -379.05784607 150.34533691 C-386.83847129 152.21788983 -394.6175356 154.0968759 -402.39642334 155.97663116 C-412.30126567 158.36984554 -422.20675085 160.76037835 -432.11375564 163.14462614 C-435.44158322 163.94570322 -438.76904266 164.74825009 -442.09570503 165.55415344 C-445.80474612 166.45233771 -449.51469983 167.34665895 -453.22485352 168.24023438 C-454.31855759 168.50623947 -455.41226166 168.77224457 -456.53910828 169.04631042 C-471.10625108 172.54325914 -471.10625108 172.54325914 -473.79296875 170.91015625 C-474.25316406 170.30042969 -474.71335937 169.69070313 -475.1875 169.0625 C-475.75984375 168.32902344 -476.3321875 167.59554687 -476.921875 166.83984375 C-477.60765625 165.90269531 -478.2934375 164.96554687 -479 164 C-479.94109557 162.75008616 -480.88394107 161.50148879 -481.828125 160.25390625 C-483.39506623 158.1794134 -484.95511954 156.10109367 -486.49755859 154.00830078 C-490.026522 149.22290568 -493.74225389 144.68956413 -497.76953125 140.30859375 C-499.50680823 137.04913122 -498.85012822 134.45178674 -498 131 C-496.83969609 127.73213067 -495.4509388 124.58223464 -494.03515625 121.41796875 C-493.64178574 120.52257889 -493.24841522 119.62718903 -492.84312439 118.70466614 C-492.01421515 116.82285005 -491.18109159 114.94288527 -490.34399414 113.06469727 C-489.06078573 110.18365113 -487.79211439 107.29652952 -486.52539062 104.40820312 C-485.71699165 102.57775122 -484.90777534 100.74766002 -484.09765625 98.91796875 C-483.71738785 98.05342575 -483.33711945 97.18888275 -482.94532776 96.29814148 C-482.40983559 95.10098259 -482.40983559 95.10098259 -481.86352539 93.87963867 C-481.55121475 93.17683273 -481.23890411 92.47402679 -480.91712952 91.74992371 C-480 90 -480 90 -478 88 C-472.65730958 93.71893623 -467.9938916 99.89979213 -463.35253906 106.1875 C-461.02746272 109.33040399 -458.68556209 112.40484825 -456.1328125 115.3671875 C-454 118 -454 118 -454 120 C-452.81253929 119.67264862 -452.81253929 119.67264862 -451.60108948 119.33868408 C-439.09673973 115.94470416 -426.50207441 112.93867459 -413.90234375 109.921875 C-412.1303873 109.49710751 -412.1303873 109.49710751 -410.32263374 109.06375885 C-404.09167675 107.57023291 -397.86016386 106.07905307 -391.62817383 104.58984375 C-385.20102528 103.05350372 -378.77586839 101.50899434 -372.35111141 99.96268845 C-367.39283541 98.77089273 -362.43313523 97.58511172 -357.47302437 96.40097809 C-355.10222017 95.83388419 -352.73195766 95.26452064 -350.362257 94.69283295 C-347.05931635 93.89659023 -343.75445008 93.10888521 -340.44897461 92.32324219 C-339.47488144 92.08640717 -338.50078827 91.84957214 -337.49717712 91.6055603 C-325.99648205 88.89507399 -325.99648205 88.89507399 -321.96459961 91.12646484 C-321.36655518 91.64934082 -320.76851074 92.1722168 -320.15234375 92.7109375 C-319.47147705 93.29125732 -318.79061035 93.87157715 -318.08911133 94.46948242 C-317.37907959 95.09830322 -316.66904785 95.72712402 -315.9375 96.375 C-314.420699 97.67224467 -312.90245756 98.9678069 -311.3828125 100.26171875 C-310.63805664 100.90157715 -309.89330078 101.54143555 -309.12597656 102.20068359 C-306.25654387 104.62922274 -303.3049753 106.91189532 -300.3125 109.1875 C-290.72625831 116.49017047 -281.27202094 123.94077612 -271.9375 131.5625 C-266.10061575 136.3273462 -260.19151979 140.97445533 -254.203125 145.546875 C-245.23132112 152.39987649 -236.41579149 159.45505065 -227.6081543 166.5168457 C-221.68128303 171.26494262 -215.71215367 175.95799697 -209.73388672 180.64111328 C-206.23553554 183.3828512 -202.7420205 186.13074956 -199.24755859 188.87744141 C-196.34497577 191.15856239 -193.44131727 193.43828263 -190.53515625 195.71484375 C-183.86231939 200.94490507 -177.22245764 206.213503 -170.60791016 211.51708984 C-164.68996284 216.25788525 -158.72968699 220.94345018 -152.76025391 225.61914062 C-150.31833615 227.53474213 -147.88187839 229.45723712 -145.4453125 231.37963867 C-143.67948329 232.76961341 -141.90859383 234.15290153 -140.13671875 235.53515625 C-138.24646683 237.02052233 -136.36945951 238.52329895 -134.51953125 240.05859375 C-133.83246094 240.61675781 -133.14539063 241.17492187 -132.4375 241.75 C-131.87933594 242.21921875 -131.32117188 242.6884375 -130.74609375 243.171875 C-128.18077095 244.38853816 -126.73915173 243.71495142 -124 243 C-121.61194699 242.04591461 -119.27869729 241.05704219 -116.9375 240 C-115.89943962 239.53832428 -115.89943962 239.53832428 -114.84040833 239.06732178 C-112.55787637 238.05015265 -110.27889301 237.02529306 -108 236 C-106.40464213 235.28655771 -104.80918147 234.57334523 -103.21362305 233.86035156 C-89.05653556 227.52164853 -74.95913284 221.0522847 -60.87716675 214.54870605 C-57.58616927 213.02943527 -54.29333518 211.5141975 -51 210 C-50.01950684 209.54818359 -49.03901367 209.09636719 -48.02880859 208.63085938 C-42.23838387 206 -42.23838387 206 -40 206 C-40.06661048 205.4414844 -40.13322096 204.88296881 -40.20184994 204.3075285 C-41.02550364 196.85001246 -41.28328044 189.41624145 -41.48071289 181.91918945 C-41.51996904 180.52647061 -41.55953378 179.13376043 -41.59938049 177.74105835 C-41.7059781 173.98204914 -41.80805459 170.22293002 -41.90911031 166.46376824 C-42.01630772 162.49866667 -42.12714551 158.53366649 -42.2374115 154.56864929 C-42.42231802 147.89861793 -42.604247 141.2285103 -42.78442383 134.55834961 C-42.99111253 126.90815692 -43.20260091 119.25810856 -43.41671187 111.60812026 C-43.62415225 104.19188732 -43.82794197 96.77555801 -44.03021049 89.35918236 C-44.11555078 86.23260334 -44.20212412 83.10606238 -44.28978157 79.9795475 C-44.52487791 71.56347402 -44.74033355 63.14744405 -44.91823196 54.72995377 C-44.97184438 52.28435478 -45.03135669 49.83887644 -45.09739304 47.39358139 C-45.18248119 44.15068314 -45.24258232 40.90836627 -45.29467773 37.66479492 C-45.33864103 36.26568737 -45.33864103 36.26568737 -45.38349247 34.83831501 C-45.44222174 28.65646304 -45.44222174 28.65646304 -43.21669006 25.35273743 C-40.62852775 23.36958291 -37.999217 22.28537872 -35 21 C-32.05557464 19.30729712 -29.19142648 17.48873552 -26.3125 15.6875 C-24.7571396 14.74635524 -23.20114642 13.80625547 -21.64453125 12.8671875 C-16.51850473 9.73824463 -11.53597867 6.40924344 -6.5949707 2.99682617 C-2.20708866 0 -2.20708866 0 0 0 Z "
        fill="#ffffff" transform="translate(732,520)" />
    <path
        d="M0 0 C9.17915652 0.75606112 17.95286375 3.41247069 26.81030273 5.81787109 C28.81746013 6.35748745 30.82796975 6.88478085 32.84155273 7.39990234 C35.76318711 8.14784455 38.67257585 8.93273284 41.58203125 9.7265625 C42.48202347 9.9497818 43.38201569 10.1730011 44.3092804 10.40298462 C48.64124158 11.63013193 50.48892259 12.17209878 52.91992188 16.11010742 C53.31808391 17.39554016 53.67570101 18.69397531 54 20 C54.21726242 20.71841064 54.43452484 21.43682129 54.65837097 22.17700195 C55.3850647 24.61118317 56.04750357 27.0564424 56.69921875 29.51171875 C56.9391304 30.40236526 57.17904205 31.29301178 57.42622375 32.21064758 C57.92872215 34.08155797 58.42861547 35.9531698 58.92602539 37.82543945 C59.68845313 40.69108242 60.4618252 43.5536156 61.23632812 46.41601562 C61.72461467 48.2394077 62.2122671 50.06296973 62.69921875 51.88671875 C63.04601936 53.16804939 63.04601936 53.16804939 63.39982605 54.4752655 C63.71564384 55.6721978 63.71564384 55.6721978 64.0378418 56.89331055 C64.224207 57.59167526 64.4105722 58.29003998 64.60258484 59.00956726 C65 61 65 61 65 65 C54.7245222 63.47309268 44.80960071 60.62628483 34.8125 57.875 C33.08019402 57.40191915 31.34777296 56.92925953 29.61523438 56.45703125 C25.40881391 55.30953843 21.20399099 54.15636033 17 53 C15.26116196 54.8811238 13.5245298 56.76420793 11.7890625 58.6484375 C11.06021851 59.4362561 11.06021851 59.4362561 10.31665039 60.23999023 C6.42440888 64.47097076 2.7851489 68.87360511 -0.8203125 73.3515625 C-2.97757399 75.97275119 -5.21311 78.49154281 -7.5 81 C-10.59555196 84.39598682 -13.55151207 87.86171531 -16.4375 91.4375 C-20.29708603 96.20996203 -24.37199991 100.73109109 -28.52734375 105.24609375 C-31.74709519 108.83207284 -34.75905176 112.56701492 -37.78515625 116.31640625 C-39.95632827 118.94708557 -42.20241357 121.47942424 -44.5 124 C-48.41492112 128.29753121 -52.11465828 132.73551753 -55.76171875 137.26171875 C-56.50035156 138.16535156 -57.23898437 139.06898438 -58 140 C-58.39564097 140.58643455 -58.79128194 141.1728691 -59.19891202 141.7770744 C-61.17756775 144.4959919 -62.75237108 146.63420527 -66.05963826 147.60386932 C-68.55260974 147.78384619 -70.9518369 147.73849526 -73.44839478 147.61399841 C-74.39243868 147.59547807 -75.33648259 147.57695773 -76.30913389 147.55787617 C-79.47049764 147.48717066 -82.62781121 147.36545469 -85.78759766 147.24389648 C-88.05461677 147.18274 -90.32172286 147.12473822 -92.58889771 147.06965637 C-98.74741646 146.91111292 -104.90379567 146.70850114 -111.06073427 146.49818301 C-117.50862958 146.28552055 -123.95760758 146.1136414 -130.40658569 145.93751526 C-141.24336293 145.63610643 -152.07909492 145.30997327 -162.91455078 144.96459961 C-174.043677 144.60993824 -185.17307724 144.26917194 -196.30322266 143.94799805 C-197.33015535 143.91835649 -197.33015535 143.91835649 -198.37783416 143.88811611 C-202.49590641 143.76937253 -206.61399388 143.65116296 -210.73208502 143.53307645 C-226.96257308 143.06732224 -243.19285447 142.59621009 -259.42227173 142.09434509 C-260.62026988 142.05746901 -261.81826803 142.02059292 -263.05256915 141.98259938 C-268.65198279 141.81017812 -274.2513328 141.63608391 -279.85058594 141.45852661 C-284.46634488 141.31355477 -289.08224759 141.18081262 -293.6987462 141.0617187 C-295.78624361 141.00573286 -297.87343037 140.93844792 -299.96055222 140.86987495 C-301.5837985 140.8348956 -301.5837985 140.8348956 -303.23983765 140.79920959 C-304.55760728 140.76377847 -304.55760728 140.76377847 -305.90199852 140.72763157 C-308.35961855 140.83922619 -308.35961855 140.83922619 -310.7265625 143.55078125 C-311.40218136 144.7821511 -312.03199544 146.03928433 -312.625 147.3125 C-313.42224962 148.78140511 -314.22761221 150.2459229 -315.0390625 151.70703125 C-315.71437012 152.95154053 -315.71437012 152.95154053 -316.40332031 154.22119141 C-319.2770702 159.22257079 -322.56406037 163.95771338 -325.80038452 168.7288208 C-327.78983495 171.66615637 -329.76118435 174.61552551 -331.73046875 177.56640625 C-332.10780655 178.13172058 -332.48514435 178.69703491 -332.87391663 179.27947998 C-336.15589343 184.20940746 -339.33446848 189.19548364 -342.41894531 194.25097656 C-344.70811267 197.9901502 -347.09459647 201.64257392 -349.55859375 205.26953125 C-350.16985107 206.17840088 -350.7811084 207.08727051 -351.41088867 208.02368164 C-352.61533367 209.80916383 -353.83253386 211.58612311 -355.0637207 213.35327148 C-355.60472412 214.15966064 -356.14572754 214.9660498 -356.703125 215.796875 C-357.19458008 216.51198242 -357.68603516 217.22708984 -358.19238281 217.96386719 C-359.25869883 220.00130929 -359.25869883 220.00130929 -358.25683594 222.1027832 C-356.58925876 224.6200214 -354.82716162 227.0328248 -353 229.4375 C-352.60482178 229.95900635 -352.20964355 230.4805127 -351.80249023 231.01782227 C-350.53919575 232.68180054 -349.27050106 234.34151901 -348 236 C-347.59152832 236.53367187 -347.18305664 237.06734375 -346.76220703 237.6171875 C-344.27029265 240.86966628 -341.76975159 244.11542762 -339.26611328 247.35888672 C-337.17432793 250.07022129 -335.08739443 252.78528452 -333 255.5 C-332.16669027 256.58335149 -331.33335693 257.66668482 -330.5 258.75 C-315.5 278.25 -315.5 278.25 -314.25097656 279.8737793 C-313.4144509 280.96123001 -312.57786197 282.04863207 -311.74121094 283.13598633 C-309.70620712 285.78093787 -307.67243467 288.42681112 -305.640625 291.07421875 C-300.84624905 297.31787502 -296.02588912 303.54038067 -291.1875 309.75 C-285.4267069 317.14531628 -279.71715246 324.57826081 -274.03125 332.03125 C-271.69457365 335.09371219 -269.34872722 338.14885586 -266.99438477 341.19775391 C-265.78173892 342.77131476 -264.57631465 344.35043252 -263.37109375 345.9296875 C-261.72107944 348.06627934 -260.05467156 350.16848065 -258.34765625 352.2578125 C-257.50257378 353.3176841 -256.6575206 354.37757906 -255.8125 355.4375 C-255.05582031 356.36433594 -254.29914063 357.29117187 -253.51953125 358.24609375 C-251.53930381 361.83493783 -252.02715724 363.04216854 -253 367 C-254.11937106 369.96836613 -255.42212457 372.84067369 -256.74609375 375.72265625 C-257.11726822 376.5457579 -257.48844269 377.36885956 -257.87086487 378.21690369 C-259.05313371 380.83515386 -260.24498967 383.4489008 -261.4375 386.0625 C-262.62433997 388.68057891 -263.80920754 391.29954124 -264.99342346 393.91880798 C-265.72934731 395.5446756 -266.4671661 397.16968721 -267.20713806 398.79371643 C-268.8920352 402.49899963 -270.53392742 406.20087347 -272 410 C-275.21911882 408.92696039 -275.64204863 408.5038629 -277.53125 405.89453125 C-278.00643066 405.24782471 -278.48161133 404.60111816 -278.97119141 403.93481445 C-279.72795166 402.8842688 -279.72795166 402.8842688 -280.5 401.8125 C-281.57935006 400.34273623 -282.66010714 398.87400481 -283.7421875 397.40625 C-284.55961426 396.29443359 -284.55961426 396.29443359 -285.39355469 395.16015625 C-287.74555103 391.99747181 -290.17701017 388.90113865 -292.625 385.8125 C-297.39106117 379.78405828 -302.09109387 373.70810879 -306.76611328 367.60888672 C-308.84092587 364.90350188 -310.92072853 362.20195834 -313 359.5 C-313.83335693 358.41668482 -314.66669027 357.33335149 -315.5 356.25 C-315.9125 355.71375 -316.325 355.1775 -316.75 354.625 C-340.5 323.75 -340.5 323.75 -341.74902344 322.1262207 C-342.5855491 321.03876999 -343.42213803 319.95136793 -344.25878906 318.86401367 C-346.29379288 316.21906213 -348.32756533 313.57318888 -350.359375 310.92578125 C-355.15375095 304.68212498 -359.97411088 298.45961933 -364.8125 292.25 C-371.09694941 284.1824492 -377.31645938 276.06682722 -383.52001953 267.93701172 C-387.33253539 262.94715675 -391.1685218 257.97529632 -395 253 C-395.82950659 251.92193617 -396.65893273 250.84381044 -397.48828125 249.765625 C-397.90311768 249.22647461 -398.3179541 248.68732422 -398.74536133 248.13183594 C-399.57535162 247.05231558 -400.40462767 245.97224568 -401.2331543 244.89160156 C-403.39830333 242.06976338 -405.57809679 239.26104724 -407.78125 236.46875 C-408.23628906 235.88802734 -408.69132812 235.30730469 -409.16015625 234.70898438 C-410.42582034 233.09461691 -411.69711313 231.48466692 -412.96875 229.875 C-414.91381666 227.12198257 -416.19753915 225.25873781 -417 222 C-415.73339844 219.20776367 -415.73339844 219.20776367 -413.609375 216.16796875 C-413.04685028 215.34526237 -413.04685028 215.34526237 -412.47296143 214.50593567 C-411.24808186 212.72137596 -409.99916226 210.95512408 -408.75 209.1875 C-407.89761554 207.95263533 -407.04736158 206.71629741 -406.19921875 205.47851562 C-404.93967281 203.6405715 -403.67913284 201.80346302 -402.41174316 199.97091675 C-399.47425993 195.72177852 -396.67690959 191.416411 -394 187 C-389.53300991 179.70065026 -384.76441307 172.6066782 -380 165.5 C-374.82793832 157.78372215 -369.69987781 150.05666921 -364.83374023 142.14233398 C-360.20239126 134.6422332 -355.33904925 127.29163087 -350.50170898 119.92358398 C-349.82180908 118.88790283 -349.14190918 117.85222168 -348.44140625 116.78515625 C-347.70083984 115.72804443 -346.96027344 114.67093262 -346.19726562 113.58178711 C-344.44521217 110.94648538 -343.35864399 108.38373104 -342.30273438 105.40454102 C-340.19246394 100.15130525 -337.97557433 95.97119517 -333 93 C-322.06411014 90.36860881 -310.20417355 91.88773417 -299.09643173 92.64001465 C-294.49085934 92.93191753 -289.88122529 93.12210535 -285.27075195 93.31835938 C-279.46665975 93.57108037 -273.66355364 93.83248899 -267.86183167 94.13528442 C-254.20752693 94.84664708 -240.56461921 95.30899212 -226.89453125 95.57421875 C-225.95061335 95.59267286 -225.00669544 95.61112698 -224.03417397 95.6301403 C-219.29789495 95.72160604 -214.56155215 95.80903501 -209.82516479 95.89468384 C-200.53646631 96.06493094 -191.2486985 96.27751519 -181.9609375 96.4921875 C-181.06808233 96.51267717 -180.17522717 96.53316685 -179.25531578 96.55427742 C-157.56284785 97.05489145 -135.87753238 97.74765107 -114.19303894 98.51657104 C-110.96549097 98.62716844 -107.73780125 98.7256694 -104.50976562 98.82080078 C-101.16466131 98.91945856 -97.83018498 99.06062868 -94.49023438 99.26904297 C-88.5413779 99.69021624 -88.5413779 99.69021624 -83.01586914 97.90966797 C-81.33834046 96.34445651 -80.145545 94.78282151 -78.875 92.875 C-77.89438746 91.57985136 -76.91258219 90.28560506 -75.9296875 88.9921875 C-75.20604004 87.99396973 -75.20604004 87.99396973 -74.46777344 86.97558594 C-72.14027584 83.84283302 -69.56856872 80.93538802 -67 78 C-65.99868576 76.83446111 -64.99868709 75.66779074 -64 74.5 C-50 58.16666667 -36 41.83333333 -22 25.5 C-21.50411377 24.92145264 -21.00822754 24.34290527 -20.49731445 23.74682617 C-19.50631999 22.59069289 -18.5152726 21.43460497 -17.52416992 20.27856445 C-14.88592921 17.20112428 -12.24885272 14.12269537 -9.61328125 11.04296875 C-9.06091797 10.39779297 -8.50855469 9.75261719 -7.93945312 9.08789062 C-6.87401377 7.84338584 -5.80889723 6.5986046 -4.74414062 5.35351562 C-1.1124622 1.1124622 -1.1124622 1.1124622 0 0 Z "
        fill="#ffffff" transform="translate(431,149)" />
    <path
        d="M0 0 C11.24942136 2.76315272 22.44038941 5.70487755 33.61328125 8.76171875 C35.31455004 9.22585787 37.01585528 9.68986338 38.7171936 10.15374756 C43.2958388 11.40267808 47.87387001 12.65384508 52.45176315 13.90552902 C56.30903419 14.95989864 60.16665927 16.01296991 64.02426624 17.06610966 C97.42707113 26.18588236 130.8170645 35.35236592 164.20239258 44.53588867 C166.01826442 45.03530503 167.83413661 45.53472012 169.65000916 46.03413391 C173.14158364 46.99443607 176.63298557 47.95536225 180.12428284 48.91667175 C188.38315191 51.1895276 196.6452038 53.44962565 204.91455078 55.68408203 C206.47775497 56.10723696 208.04095197 56.53041847 209.60414124 56.95362854 C212.50892695 57.73992973 215.41485214 58.52181359 218.32151794 59.3011322 C220.22273155 59.81541527 220.22273155 59.81541527 222.16235352 60.34008789 C223.2719191 60.63830948 224.38148468 60.93653107 225.52467346 61.24378967 C228 62 228 62 229 63 C229.1551923 65.79835729 229.24540373 68.57401903 229.29443359 71.375 C229.32315237 72.70358284 229.32315237 72.70358284 229.35245132 74.05900574 C229.41495579 77.03925403 229.46961672 80.01958293 229.5234375 83 C229.56420472 85.11499091 229.60500746 87.22998113 229.64584351 89.3449707 C229.77516502 96.22980316 229.88897126 103.11485145 230 110 C230.02846764 111.729086 230.02846764 111.729086 230.05751038 113.49310303 C230.28942168 127.70446864 230.46536217 141.91505188 230.54831314 156.12811279 C230.58484834 162.24731525 230.63995779 168.36527281 230.73388672 174.48388672 C230.8264734 180.54878608 230.87528633 186.6125658 230.89283371 192.6781311 C230.90686036 194.95560585 230.93634489 197.23304375 230.98213577 199.51010132 C231.04267977 202.65656141 231.0468937 205.79839194 231.03759766 208.9453125 C231.06838409 209.86553696 231.09917053 210.78576141 231.13088989 211.73387146 C231.06604047 215.76476895 230.86696167 218.07090911 228.05222702 221.08735657 C225.77081415 222.88194951 223.46060186 224.46321205 221 226 C219.80594507 226.83683885 218.61494134 227.6780854 217.4296875 228.52734375 C216.24655449 229.333323 215.06158287 230.1366084 213.875 230.9375 C212.47740633 231.88995292 211.08030075 232.8431223 209.68359375 233.796875 C208.9344873 234.30798828 208.18538086 234.81910156 207.41357422 235.34570312 C202.90508013 238.43588682 198.42252308 241.56339474 193.9375 244.6875 C192.96280762 245.36611084 191.98811523 246.04472168 190.98388672 246.74389648 C188.9850929 248.13560446 186.98639563 249.52745112 184.98779297 250.91943359 C181.11215789 253.61825384 177.23523616 256.31522164 173.3581543 259.01196289 C171.45197414 260.33783843 169.54588697 261.66384766 167.63989258 262.98999023 C162.77421842 266.3753656 157.90752583 269.75926171 153.0390625 273.140625 C151.06765835 274.51034473 149.0963038 275.88013585 147.125 277.25 C146.16005615 277.9203125 145.1951123 278.590625 144.20092773 279.28125 C139.30594137 282.6855838 134.4271734 286.11033147 129.57104492 289.56982422 C122.08054225 294.90340446 114.47619338 300.04323368 106.8125 305.125 C98.07741208 310.91879833 89.4656126 316.81965564 81 323 C71.92657937 329.60803196 62.83258292 336.16953809 53.5625 342.5 C52.4012561 343.29639893 52.4012561 343.29639893 51.21655273 344.10888672 C47.04828091 346.95784513 42.85217413 349.7531911 38.61328125 352.49609375 C37.73663818 353.07230469 36.85999512 353.64851563 35.95678711 354.2421875 C34.27360603 355.34743662 32.58072038 356.43808792 30.87719727 357.51171875 C30.12108154 358.011875 29.36496582 358.51203125 28.5859375 359.02734375 C27.58119385 359.67304321 27.58119385 359.67304321 26.55615234 360.33178711 C22.45850373 364.72451271 23.52337419 374.20163451 23.16796875 379.95288086 C23.09140045 381.15195572 23.01483215 382.35103058 22.9359436 383.58644104 C22.72720553 386.86318112 22.52114495 390.140077 22.31610489 393.41705012 C22.10022256 396.85457465 21.88041428 400.29184778 21.66088867 403.72914124 C21.15097142 411.72286166 20.64541254 419.71685454 20.14060974 427.71089935 C19.49827104 437.88254011 18.85497777 448.05411676 18.2056818 458.22531611 C17.98764202 461.6431001 17.77080595 465.06095187 17.55673218 468.47898674 C17.31759589 472.29205782 17.07514789 476.10490554 16.83203125 479.91772461 C16.76239166 481.04262299 16.69275208 482.16752136 16.6210022 483.32650757 C16.28155052 488.59832881 15.85113737 493.78513122 15 499 C9.08831937 501.22871963 3.17395696 503.44984872 -2.74609375 505.65625 C-6.35474354 507.00212328 -9.95338244 508.36548972 -13.53515625 509.78125 C-14.74042969 510.2453125 -15.94570313 510.709375 -17.1875 511.1875 C-18.72470703 511.79658203 -18.72470703 511.79658203 -20.29296875 512.41796875 C-23.68527961 513.14734006 -24.99859966 512.69371627 -28 511 C-30.32421875 509.1171875 -30.32421875 509.1171875 -32.6875 506.875 C-35.90168372 503.90117313 -39.12653729 501.02726235 -42.5625 498.3125 C-47.44392146 494.44967371 -52.2960244 490.55312549 -57.125 486.625 C-58.28237671 485.69554565 -58.28237671 485.69554565 -59.46313477 484.74731445 C-60.17912842 484.16296631 -60.89512207 483.57861816 -61.6328125 482.9765625 C-62.28137207 482.45143066 -62.92993164 481.92629883 -63.59814453 481.38525391 C-64.06075684 480.92812012 -64.52336914 480.47098633 -65 480 C-65 479.34 -65 478.68 -65 478 C-63.67609253 477.51587646 -63.67609253 477.51587646 -62.32543945 477.02197266 C-59.035832 475.81863187 -55.74647218 474.61461888 -52.45727539 473.41015625 C-51.03647495 472.8900317 -49.61557772 472.37017147 -48.19458008 471.85058594 C-46.14638881 471.10161512 -44.0985531 470.35167917 -42.05078125 469.6015625 C-40.20480347 468.92601318 -40.20480347 468.92601318 -38.3215332 468.23681641 C-35.52961099 467.19720759 -32.7595524 466.12214164 -30 465 C-27.91501663 442.32754204 -26.57657886 419.6023944 -25.1395874 396.88195801 C-24.60564882 388.44182579 -24.06912526 380.0018601 -23.53009224 371.56205177 C-23.34433652 368.64477729 -23.16047853 365.72738766 -22.97679138 362.8099823 C-22.70979568 358.57862762 -22.4256146 354.34867095 -22.13548851 350.1188488 C-22.01402466 348.21932586 -21.92285338 346.31792286 -21.83564758 344.41651917 C-21.44843824 337.61073611 -21.44843824 337.61073611 -19.2434082 334.60766602 C-18.49921631 334.14030029 -17.75502441 333.67293457 -16.98828125 333.19140625 C-15.76359131 332.37760498 -15.76359131 332.37760498 -14.51416016 331.54736328 C-13.6844873 331.0367334 -12.85481445 330.52610352 -12 330 C-10.55228983 328.99358251 -9.10816901 327.981979 -7.66796875 326.96484375 C-6.17622153 325.95315525 -4.68266454 324.9441312 -3.1875 323.9375 C3.49318234 319.40267391 10.14154558 314.82698809 16.75 310.1875 C23.92695812 305.15139587 31.1137634 300.1299344 38.3125 295.125 C39.75254395 294.12376099 39.75254395 294.12376099 41.22167969 293.10229492 C43.17328577 291.74552768 45.1249461 290.38883847 47.07666016 289.03222656 C51.88530162 285.68938945 56.69258892 282.34460619 61.5 279 C63.41666003 277.66665713 65.3333267 276.3333238 67.25 275 C68.19875 274.34 69.1475 273.68 70.125 273 C124.75 235 124.75 235 127.62646484 232.99902344 C129.53830181 231.66902165 131.45008588 230.33894383 133.36181641 229.00878906 C138.22694114 225.62384972 143.09304912 222.24033897 147.9609375 218.859375 C148.94231689 218.17746094 149.92369629 217.49554688 150.93481445 216.79296875 C152.87312735 215.44614468 154.81175936 214.09977973 156.75073242 212.75390625 C161.23585797 209.63652427 165.70850007 206.50413845 170.15234375 203.328125 C170.94334473 202.76383789 171.7343457 202.19955078 172.54931641 201.61816406 C174.01945102 200.56702574 175.48674906 199.51190465 176.95068359 198.45214844 C181.77956727 195 181.77956727 195 184 195 C183.98747192 194.28623199 183.97494385 193.57246399 183.96203613 192.83706665 C183.80353467 183.76645204 183.64976643 174.69576258 183.5 165.625 C183.48812275 164.90583782 183.4762455 164.18667564 183.46400833 163.44572067 C183.10532255 141.62918322 182.84791141 119.81995937 183 98 C182.39165314 97.9055661 181.78330627 97.8111322 181.15652466 97.71383667 C172.60904249 96.28243074 164.32891639 94.01980929 155.9921875 91.6953125 C154.4125465 91.2588059 152.8327802 90.82275251 151.25289917 90.38711548 C147.00660413 89.21504197 142.76190778 88.03727645 138.51750183 86.85838318 C134.07929584 85.62663167 129.63973478 84.39978661 125.20019531 83.17285156 C123.3862302 82.67150978 121.57226535 82.170167 119.75830078 81.66882324 C118.40061584 81.29360786 118.40061584 81.29360786 117.01550293 80.91081238 C114.24245975 80.14419317 111.46960377 79.37689987 108.69677734 78.60949707 C96.87713187 75.33952863 85.05082977 72.09481395 73.2181282 68.87241745 C70.6454951 68.17177195 68.07301389 67.47057149 65.50057983 66.76919556 C55.72010563 64.10252307 55.72010563 64.10252307 45.93743896 61.44390869 C42.16977078 60.42172895 38.40317094 59.39570323 34.63733292 58.36680222 C33.26094665 57.99155429 31.88415238 57.6177992 30.50692368 57.24565506 C28.63214761 56.73892394 26.75890197 56.22654071 24.88574219 55.71386719 C23.3157547 55.287117 23.3157547 55.287117 21.71405029 54.85174561 C17.02694414 53.38079937 17.02694414 53.38079937 15 52 C13.99421692 49.91944885 13.99421692 49.91944885 13.27661133 47.32250977 C12.99985062 46.35132706 12.7230899 45.38014435 12.4379425 44.37953186 C12.15549179 43.32745041 11.87304108 42.27536896 11.58203125 41.19140625 C11.27931808 40.11374496 10.97660492 39.03608368 10.66471863 37.92576599 C9.69903253 34.47530388 8.75546365 31.01923338 7.8125 27.5625 C7.1661827 25.2359195 6.51841386 22.9097417 5.86914062 20.58398438 C4.44071203 15.46219612 3.02657221 10.33668999 1.62483215 5.20753479 C1.1296042 3.45789224 0.57502172 1.72506516 0 0 Z "
        fill="#ffffff" transform="translate(601,195)" />
    <path d="" fill="#ffffff" transform="translate(0,0)" />
</svg>